<svg viewBox="0 0 25 25" xmlns="http://www.w3.org/2000/svg"><path d="M8.188 4.3c-1.929 0-3.695.518-5.053 1.42a1 1 0 0 0-.447.835v13a1 1 0 0 0 1.554.832c.978-.65 2.382-1.086 3.946-1.086s2.969.436 3.947 1.086a1 1 0 0 0 .191.037 1 1 0 0 0 .266.092 1 1 0 0 0 .096.039 1 1 0 0 0 .095-.04 1 1 0 0 0 .268-.091 1 1 0 0 0 .191-.037c.978-.65 2.382-1.086 3.946-1.086 1.565 0 2.969.436 3.947 1.086a1 1 0 0 0 1.553-.832v-13a1 1 0 0 0-.446-.834c-1.358-.903-3.125-1.42-5.054-1.42a9.208 9.208 0 0 0-4.5 1.17 9.215 9.215 0 0 0-4.5-1.17zm0 2a7.29 7.29 0 0 1 3.5.886v10.832c-1.066-.418-2.22-.717-3.5-.717-1.281 0-2.435.299-3.5.717V7.188a7.28 7.28 0 0 1 3.5-.887zm9 0c1.365 0 2.555.37 3.5.886v10.832c-1.066-.418-2.22-.717-3.5-.717-1.281 0-2.434.299-3.5.717V7.188a7.28 7.28 0 0 1 3.5-.887z"/></svg>