<svg version="1.1" viewBox="0 0 24 24" xmlns="http://www.w3.org/2000/svg">
  <path d="m12 3c-5.4505 0-10 3.9739-10 9 0 1.5822 0.51644 3.0427 1.3086 4.3301l-1.2441 3.3184a1.0001 1.0001 0 0 0 1.1309 1.332l4.4902-0.89844c1.3659 0.58749 2.8287 0.92303 4.3184 0.91797 5.4487-0.001946 9.9961-3.9751 9.9961-9 0-5.0261-4.5495-9-10-9zm0 2c4.4895 0 8 3.1901 8 7 0 3.8099-3.5105 7-8 7a1.0001 1.0001 0 0 0-0.0039 0c-1.3223 0.0045-2.6273-0.28757-3.8223-0.85352a1.0001 1.0001 0 0 0-0.625-0.07617l-2.9805 0.5957 0.76367-2.0352a1.0001 1.0001 0 0 0-0.12305-0.93164c-0.77211-1.0825-1.209-2.3421-1.209-3.6992 0-3.8099 3.5105-7 8-7zm-4 6a1 1 0 0 0-1 1 1 1 0 0 0 1 1h0.00977a1 1 0 0 0 1-1 1 1 0 0 0-1-1zm4 0a1 1 0 0 0-1 1 1 1 0 0 0 1 1h0.0098a1 1 0 0 0 1-1 1 1 0 0 0-1-1zm4 0a1 1 0 0 0-1 1 1 1 0 0 0 1 1h0.0098a1 1 0 0 0 1-1 1 1 0 0 0-1-1z"/>
</svg>
