<svg viewBox="0 0 24 24" xmlns="http://www.w3.org/2000/svg"><path d="M10.801 2.4A1.203 1.203 0 0 0 9.6 3.6a1.203 1.203 0 0 0 1.2 1.2h2.398A1.202 1.202 0 0 0 14.4 3.6a1.198 1.198 0 0 0-1.202-1.2H10.8zM7.199 3.6A2.4 2.4 0 0 0 4.801 6v13.199a2.4 2.4 0 0 0 2.398 2.4h9.602a2.401 2.401 0 0 0 2.398-2.4V6a2.4 2.4 0 0 0-2.398-2.4 3.597 3.597 0 0 1-3.602 3.6h-2.398a3.602 3.602 0 0 1-3.602-3.6zm1.202 7.2h.011a1.198 1.198 0 0 1 .848 2.048c-.225.225-.53.351-.848.351h-.011A1.202 1.202 0 0 1 7.199 12a1.198 1.198 0 0 1 1.202-1.2zm3.6 0H15.6a1.202 1.202 0 0 1 1.2 1.2 1.198 1.198 0 0 1-1.201 1.2H12a1.198 1.198 0 0 1-.847-2.048c.225-.225.529-.351.847-.351zm-3.6 4.8h.011a1.198 1.198 0 0 1 1.2 1.2 1.198 1.198 0 0 1-1.2 1.2h-.011a1.202 1.202 0 0 1-1.202-1.2 1.202 1.202 0 0 1 1.202-1.2zm3.6 0H15.6a1.202 1.202 0 0 1 1.201 1.2A1.198 1.198 0 0 1 15.6 18H12a1.198 1.198 0 0 1-1.199-1.2 1.202 1.202 0 0 1 1.2-1.2z"/></svg>