<svg viewBox="0 0 24 24" xmlns="http://www.w3.org/2000/svg"><path d="M11 2c-.795 0-1.559.317-2.121.879-.297.297-.316.736-.465 1.121H7a3 3 0 0 0-3 3v12a3.001 3.001 0 0 0 3 3h10a3.001 3.001 0 0 0 3-3V7a3 3 0 0 0-3-3h-1.414c-.15-.385-.168-.824-.465-1.121A3.001 3.001 0 0 0 13 2zm0 2h2a.999.999 0 0 1 .707 1.707A.999.999 0 0 1 13 6h-2a.999.999 0 0 1-.707-1.707A.999.999 0 0 1 11 4zM7 6h1.414c.15.385.168.824.465 1.121A3.001 3.001 0 0 0 11 8h2c.795 0 1.559-.317 2.121-.879.297-.297.316-.736.465-1.121H17a.999.999 0 0 1 1 1v12a.998.998 0 0 1-1 1H7a.999.999 0 0 1-1-1V7a.999.999 0 0 1 1-1zm2 5a1 1 0 0 0-1 1 1 1 0 0 0 1 1h.01a1 1 0 0 0 1-1 1 1 0 0 0-1-1zm3 0a1 1 0 0 0-1 1 1 1 0 0 0 1 1h3a1 1 0 0 0 1-1 1 1 0 0 0-1-1zm-3 4a1 1 0 0 0-1 1 1 1 0 0 0 1 1h.01a1 1 0 0 0 1-1 1 1 0 0 0-1-1zm3 0a1 1 0 0 0-1 1 1 1 0 0 0 1 1h3a1 1 0 0 0 1-1 1 1 0 0 0-1-1z"/></svg>