<svg version="1.1" viewBox="0 0 24 24" xmlns="http://www.w3.org/2000/svg">
  <path d="m14.242 3.0293a1 1 0 0 0-1.2129 0.72852l-4 16a1 1 0 0 0 0.72852 1.2129 1 1 0 0 0 1.2129-0.72852l4-16a1 1 0 0 0-0.72852-1.2129zm-8.2422 3.9707a1 1 0 0 0-0.70703 0.29297l-4 4a1.0001 1.0001 0 0 0 0 1.4141l4 4a1 1 0 0 0 1.4141 0 1 1 0 0 0 0-1.4141l-3.293-3.293 3.293-3.293a1 1 0 0 0 0-1.4141 1 1 0 0 0-0.70703-0.29297zm12 0a1 1 0 0 0-0.70703 0.29297 1 1 0 0 0 0 1.4141l3.293 3.293-3.293 3.293a1 1 0 0 0 0 1.4141 1 1 0 0 0 1.4141 0l4-4a1.0001 1.0001 0 0 0 0-1.4141l-4-4a1 1 0 0 0-0.70703-0.29297z" />
</svg>