<svg viewBox="0 0 24 24" xmlns="http://www.w3.org/2000/svg"><path d="M12 2c-1.131 0-2.328.769-2.647 2.082-.123.504-.638.717-1.08.447a1 1 0 0 0 0-.002C7.12 3.825 5.73 4.13 4.93 4.93s-1.104 2.187-.4 3.341a1 1 0 0 0 0 .002.721.721 0 0 1-.15.926.72.72 0 0 1-.298.154C2.769 9.673 2 10.87 2 12s.768 2.327 2.08 2.646a.728.728 0 0 1 .498.426.729.729 0 0 1-.05.655c-.703 1.154-.399 2.543.402 3.343.8.8 2.187 1.104 3.341.4a1 1 0 0 0 .002 0 .721.721 0 0 1 .653-.05 1 1 0 0 0 .002 0 .722.722 0 0 1 .271.2.72.72 0 0 1 .154.298C9.673 21.231 10.87 22 12 22s2.327-.768 2.646-2.08v-.002a.728.728 0 0 1 .76-.549.722.722 0 0 1 .32.104c1.155.702 2.544.397 3.344-.403.8-.8 1.104-2.187.4-3.341a1 1 0 0 0 0-.002.72.72 0 0 1-.05-.653 1 1 0 0 0 0-.002.722.722 0 0 1 .2-.271.72.72 0 0 1 .298-.155C21.231 14.328 22 13.131 22 12c0-1.13-.768-2.327-2.08-2.647h-.002a.728.728 0 0 1-.496-.425v-.002a.728.728 0 0 1 .05-.653c.703-1.154.398-2.543-.402-3.343-.8-.8-2.188-1.104-3.342-.4a1 1 0 0 0-.001 0 .72.72 0 0 1-.926-.15.72.72 0 0 1-.155-.298C14.328 2.769 13.131 2 12 2zm0 2c.33 0 .596.11.703.553a2.72 2.72 0 0 0 1.606 1.875 2.718 2.718 0 0 0 2.459-.192c.389-.237.654-.126.888.108s.345.499.108.888a2.723 2.723 0 0 0 .554 3.487c.326.278.713.477 1.13.578.442.107.552.372.552.703s-.11.596-.553.703a2.72 2.72 0 0 0-1.875 1.605 2.718 2.718 0 0 0 .192 2.46c.237.389.126.654-.108.888s-.499.345-.888.108a2.724 2.724 0 0 0-4.065 1.683c-.107.443-.372.553-.703.553s-.596-.11-.703-.553a2.72 2.72 0 0 0-1.606-1.875 2.718 2.718 0 0 0-2.459.192c-.389.237-.654.126-.888-.108s-.345-.499-.108-.889a2.725 2.725 0 0 0-1.683-4.064C4.11 12.596 4 12.331 4 12s.11-.596.553-.703A2.72 2.72 0 0 0 6.428 9.69a2.72 2.72 0 0 0-.192-2.459V7.23c-.235-.387-.126-.653.108-.886.234-.234.499-.345.888-.108 1.55.947 3.636.082 4.065-1.683C11.404 4.11 11.669 4 12 4zm0 4a4 4 0 0 0 0 8 4 4 0 0 0 0-8zm0 2a1.999 1.999 0 1 1 0 3.998A1.999 1.999 0 0 1 12 10z"/></svg>