<svg viewBox="0 0 24 24" xmlns="http://www.w3.org/2000/svg"><path d="M9 2a3 3 0 0 0-3 3v1.414c-.385.15-.824.168-1.121.465A3 3 0 0 0 4 9v1.414c-.385.15-.824.168-1.121.465A3.001 3.001 0 0 0 2 13v6a3.001 3.001 0 0 0 3 3h14a3.001 3.001 0 0 0 3-3v-6c0-.795-.317-1.559-.879-2.121-.297-.297-.736-.315-1.121-.465V9a3 3 0 0 0-.879-2.121c-.297-.297-.736-.315-1.121-.465V5a3 3 0 0 0-3-3zm0 2h6a.999.999 0 0 1 1 1v1H8V5a.999.999 0 0 1 1-1zM7 8h10a.999.999 0 0 1 1 1v1H6V9a.999.999 0 0 1 1-1zm-2 4h14a.998.998 0 0 1 1 1v6a.998.998 0 0 1-1 1H5a.999.999 0 0 1-1-1v-6a.999.999 0 0 1 1-1z"/></svg>