<svg viewBox="0 0 24 24" xmlns="http://www.w3.org/2000/svg"><path d="M12 2a10 10 0 1 0 3.826 19.238A10.002 10.002 0 0 0 22 12 10 10 0 0 0 12 2zm0 2c2.122 0 4.156.843 5.656 2.344A7.998 7.998 0 1 1 6.344 17.656a8.004 8.004 0 0 1-1.735-2.593v-.002a7.997 7.997 0 0 1 1.734-8.717A7.998 7.998 0 0 1 12 4zM9 9a1 1 0 0 0-1 1 1 1 0 0 0 1 1h.01a1 1 0 0 0 1-1 1 1 0 0 0-1-1zm6 0a1 1 0 0 0-1 1 1 1 0 0 0 1 1h.01a1 1 0 0 0 1-1 1 1 0 0 0-1-1zm-.172 4.828a1 1 0 0 0-.707.293 3 3 0 0 1-4.242 0 1 1 0 0 0-1.414 0 1 1 0 0 0 0 1.414 5.002 5.002 0 0 0 7.07 0 1 1 0 0 0 0-1.414 1 1 0 0 0-.707-.293z"/></svg>