<svg viewBox="0 0 24 24" xmlns="http://www.w3.org/2000/svg"><path d="M12 2.031c-1.016 0-2.032.49-2.598 1.469l-6.927 12C1.344 17.458 2.81 20 5.072 20h13.855c2.262 0 3.729-2.542 2.598-4.5l-6.928-12c-.565-.979-1.581-1.469-2.597-1.469zm0 1.938c.33 0 .66.177.865.531l6.93 12c.409.708-.049 1.5-.867 1.5H5.073c-.819 0-1.276-.792-.867-1.5l6.93-12c.204-.354.534-.531.864-.531zm0 4.03a1 1 0 0 0-1 1v2a1 1 0 0 0 1 1 1 1 0 0 0 1-1V9a1 1 0 0 0-1-1zm0 6a1 1 0 0 0-1 1 1 1 0 0 0 1 1h.01a1 1 0 0 0 1-1 1 1 0 0 0-1-1z"/></svg>