<svg viewBox="0 0 24 24" xmlns="http://www.w3.org/2000/svg"><path d="M11.242 3.03a1 1 0 0 0-1.213.728L8.97 8H6a1 1 0 0 0-1 1 1 1 0 0 0 1 1h2.47l-1 4H4a1 1 0 0 0-1 1 1 1 0 0 0 1 1h2.97l-.94 3.758a1 1 0 0 0 .729 1.213 1 1 0 0 0 1.213-.729L9.03 16h3.938l-.94 3.758a1 1 0 0 0 .729 1.213 1 1 0 0 0 1.213-.729L15.03 16H18a1 1 0 0 0 1-1 1 1 0 0 0-1-1h-2.47l1-4H20a1 1 0 0 0 1-1 1 1 0 0 0-1-1h-2.97l.94-3.758a1 1 0 0 0-.729-1.213 1 1 0 0 0-1.213.729L14.97 8h-3.94l.94-3.758a1 1 0 0 0-.729-1.213zm-.71 6.97h3.937l-1 4H9.53z"/></svg>