<svg viewBox="0 0 36 36" xmlns="http://www.w3.org/2000/svg">
  <path
    d="M14.821 2.06a4.5 4.5 0 0 1 6.364 0l2.443 2.444h6.75c.621 0 1.125.503 1.125 1.125v6.75l2.443 2.443a4.5 4.5 0 0 1 0 6.364l-2.443 2.443v3.375a4.5 4.5 0 0 1-4.5 4.5h-3.375l-2.443 2.443a4.5 4.5 0 0 1-6.364 0l-2.443-2.444H9.003a4.5 4.5 0 0 1-4.5-4.5v-3.375L2.06 21.185a4.5 4.5 0 0 1 0-6.364l2.443-2.443V9.003a4.5 4.5 0 0 1 4.5-4.5h3.375l2.443-2.443zm2.398 23.034c.44.429 1.144.425 1.58-.01l12.374-12.376c.211-.21.33-.497.33-.795V7.22c0-1.002-1.212-1.504-1.92-.796l-2.018 2.017-9.562 9.563-.784-.784-.012-.012-2.346-2.346a1.125 1.125 0 0 0-1.582-.009l-2.364 2.364a1.125 1.125 0 0 0-.003 1.571l6.307 6.307z" />
</svg>