<svg viewBox="0 0 24 24" xmlns="http://www.w3.org/2000/svg"><path d="M5 3a3 3 0 0 0-3 3v12a3.001 3.001 0 0 0 3 3h14a1 1 0 0 0 .707-.293c.504-.135 1.04-.211 1.414-.586A3.001 3.001 0 0 0 22 18V9a3 3 0 0 0-3-3h-1a3 3 0 0 0-3-3H9zm0 2h10a.999.999 0 0 1 1 1v12c0 .375.28.657.414 1H5a.999.999 0 0 1-1-1V6a.999.999 0 0 1 1-1zm2 2a1 1 0 0 0-1 1v4a1 1 0 0 0 1 1h6a1 1 0 0 0 1-1V8a1 1 0 0 0-1-1zm11 1h1a.999.999 0 0 1 1 1v9a.998.998 0 0 1-1.707.707A.999.999 0 0 1 18 18zM8 9h4v2H8zm-1 6a1 1 0 0 0-1 1 1 1 0 0 0 1 1h6a1 1 0 0 0 1-1 1 1 0 0 0-1-1z"/></svg>