<svg viewBox="0 0 24 24" xmlns="http://www.w3.org/2000/svg"><path d="M12 2a10 10 0 1 0 3.826 19.238A10.002 10.002 0 0 0 22 12 10 10 0 0 0 12 2zm0 2c2.122 0 4.156.843 5.656 2.344A7.998 7.998 0 1 1 6.344 17.656a8.004 8.004 0 0 1-1.735-2.594v-.002a7.997 7.997 0 0 1 1.734-8.717A7.998 7.998 0 0 1 12 4zm0 2c-2.062 0-3.91.949-4.676 2.574a1 1 0 0 0 .477 1.33 1 1 0 0 0 1.332-.478C9.465 8.72 10.577 8 12 8c.902 0 1.7.281 2.228.678.529.396.772.854.772 1.322 0 .791-.807 1.659-2.195 1.926-.95.182-1.805.976-1.805 2.074a1 1 0 0 0 1 1 1 1 0 0 0 1-1c0-.008.047-.085.182-.111a1 1 0 0 0 .002 0C15.25 13.49 17 12.009 17 10c0-1.189-.651-2.232-1.57-2.922C14.51 6.388 13.308 6 12 6zm0 10a1 1 0 0 0-1 1 1 1 0 0 0 1 1h.01a1 1 0 0 0 1-1 1 1 0 0 0-1-1z"/></svg>