<svg viewBox="0 0 24 24" xmlns="http://www.w3.org/2000/svg"><path d="M9.881 1.374a3 3 0 0 1 4.243 0l1.628 1.628h2.25a3 3 0 0 1 3 3v2.25l1.629 1.63a3 3 0 0 1 0 4.242l-1.629 1.628v2.25a3 3 0 0 1-3 3h-2.25l-1.628 1.63a3 3 0 0 1-4.243 0l-1.629-1.63h-2.25a3 3 0 0 1-3-3v-2.25l-1.628-1.628a3 3 0 0 1 0-4.243l1.628-1.629v-2.25a3 3 0 0 1 3-3h2.25l1.629-1.628zm-.372 13.618a.575.575 0 0 0-.515 1.03c2.664 1.331 5.357 1.331 8.02 0a.575.575 0 1 0-.514-1.03c-2.34 1.17-4.651 1.17-6.991 0zm.367-5.74C9.876 8.56 9.456 8 8.938 8S8 8.56 8 9.251s.42 1.251.938 1.251.938-.56.938-1.25zM16.444 8c.519 0 .939.56.939 1.251s-.42 1.251-.939 1.251-.938-.56-.938-1.25S15.926 8 16.444 8z" clip-rule="evenodd" fill-rule="evenodd"/></svg>